<svg width="288" height="384" fill="none" xmlns="http://www.w3.org/2000/svg"><path opacity=".08" d="M516.963 44.656c19.509 32.792-11.514 97.392-46.694 167.239-35.181 69.847-74.199 144.941-118.654 147.892-44.456 3.279-94.348-65.256-138.164-140.35-44.135-75.093-82.514-156.745-57.568-192.489C180.829-9.122 268.78 1.043 348.097 6.29c79.316 5.247 149.357 5.903 168.866 38.367z" fill="#fff"/><path opacity=".08" d="M336.87 480.169c-30.586 22.316-96.079-4.365-167.015-34.879-70.935-30.514-147.29-64.536-153.528-109.529C9.77 290.793 73.006 234.879 143.112 184.65c70.083-50.553 147.011-95.747 183.836-73.07 37.144 22.652 33.84 112.874 34.693 193.942.853 81.067 5.494 152.355-24.771 174.647z" fill="#fff"/></svg>